<svg width="16" height="16" viewBox="0 0 16 16" fill="none" xmlns="http://www.w3.org/2000/svg">
<path d="M11.3334 12C11.687 12 12.0261 12.1405 12.2762 12.3905C12.5262 12.6406 12.6667 12.9797 12.6667 13.3333C12.6667 13.687 12.5262 14.0261 12.2762 14.2762C12.0261 14.5262 11.687 14.6667 11.3334 14.6667C10.5934 14.6667 10 14.0667 10 13.3333C10 12.5933 10.5934 12 11.3334 12ZM0.666687 1.33334H2.84669L3.47335 2.66668H13.3334C13.5102 2.66668 13.6797 2.73691 13.8048 2.86194C13.9298 2.98696 14 3.15653 14 3.33334C14 3.44668 13.9667 3.56001 13.92 3.66668L11.5334 7.98001C11.3067 8.38668 10.8667 8.66668 10.3667 8.66668H5.40002L4.80002 9.75334L4.78002 9.83334C4.78002 9.87755 4.79758 9.91994 4.82884 9.95119C4.86009 9.98245 4.90248 10 4.94669 10H12.6667V11.3333H4.66669C3.92669 11.3333 3.33335 10.7333 3.33335 10C3.33335 9.76668 3.39335 9.54668 3.49335 9.36001L4.40002 7.72668L2.00002 2.66668H0.666687V1.33334ZM4.66669 12C5.02031 12 5.35945 12.1405 5.6095 12.3905C5.85954 12.6406 6.00002 12.9797 6.00002 13.3333C6.00002 13.687 5.85954 14.0261 5.6095 14.2762C5.35945 14.5262 5.02031 14.6667 4.66669 14.6667C3.92669 14.6667 3.33335 14.0667 3.33335 13.3333C3.33335 12.5933 3.92669 12 4.66669 12ZM10.6667 7.33334L12.52 4.00001H4.09335L5.66669 7.33334H10.6667Z" fill="#717172"/>
</svg>
